HIERARCHY
ROOT joint_Root
{
	OFFSET 0.0 0.0 0.0
	CHANNELS 6 Xposition Yposition Zposition Zrotation Xrotation Yrotation 
	JOINT Hips
	{
		OFFSET 4.5925 91.4895 -427.239
		CHANNELS 6 Xposition Yposition Zposition Zrotation Xrotation Yrotation 
		JOINT Spine
		{
			OFFSET 15.7357 0.0 0.0
			CHANNELS 6 Xposition Yposition Zposition Zrotation Xrotation Yrotation 
			JOINT Chest
			{
				OFFSET 8.98455 -0.406207 0.0
				CHANNELS 6 Xposition Yposition Zposition Zrotation Xrotation Yrotation 
				JOINT Neck
				{
					OFFSET 16.3773 0.0 0.0
					CHANNELS 6 Xposition Yposition Zposition Zrotation Xrotation Yrotation 
					JOINT Head
					{
						OFFSET 6.45672 0.0 0.0
						CHANNELS 6 Xposition Yposition Zposition Zrotation Xrotation Yrotation 
						End Site
						{
							OFFSET 0.0 0.0 0.0
						}
					}
				}
				JOINT Shoulder_L
				{
					OFFSET 12.9942 -0.242716 4.98039
					CHANNELS 6 Xposition Yposition Zposition Zrotation Xrotation Yrotation 
					JOINT UpperArm_L
					{
						OFFSET 5.34809 0.0 0.0
						CHANNELS 6 Xposition Yposition Zposition Zrotation Xrotation Yrotation 
						JOINT LowerArm_L
						{
							OFFSET 24.3286 1.87007e-05 0.0
							CHANNELS 6 Xposition Yposition Zposition Zrotation Xrotation Yrotation 
							JOINT Hand_L
							{
								OFFSET 22.2916 0.0 0.0
								CHANNELS 6 Xposition Yposition Zposition Zrotation Xrotation Yrotation 
								End Site
								{
									OFFSET 0.0 0.0 0.0
								}
							}
						}
					}
				}
				JOINT Shoulder_R
				{
					OFFSET 12.9945 -0.242716 -4.98039
					CHANNELS 6 Xposition Yposition Zposition Zrotation Xrotation Yrotation 
					JOINT UpperArm_R
					{
						OFFSET -5.34813 0.0 0.0
						CHANNELS 6 Xposition Yposition Zposition Zrotation Xrotation Yrotation 
						JOINT LowerArm_R
						{
							OFFSET -24.3289 0.000322201 0.0
							CHANNELS 6 Xposition Yposition Zposition Zrotation Xrotation Yrotation 
							JOINT Hand_R
							{
								OFFSET -22.2915 -0.000108084 0.0
								CHANNELS 6 Xposition Yposition Zposition Zrotation Xrotation Yrotation 
								End Site
								{
									OFFSET 0.0 0.0 0.0
								}
							}
						}
					}
				}
			}
		}
		JOINT UpperLeg_L
		{
			OFFSET -2.19248 -6.46944 0.0
			CHANNELS 6 Xposition Yposition Zposition Zrotation Xrotation Yrotation 
			JOINT LowerLeg_L
			{
				OFFSET 39.0811 0.0 -1.23785e-05
				CHANNELS 6 Xposition Yposition Zposition Zrotation Xrotation Yrotation 
				JOINT Foot_L
				{
					OFFSET 40.9854 0.0 -1.26872e-05
					CHANNELS 6 Xposition Yposition Zposition Zrotation Xrotation Yrotation 
					JOINT Toes_L
					{
						OFFSET 11.7543 0.0 0.0
						CHANNELS 6 Xposition Yposition Zposition Zrotation Xrotation Yrotation 
						End Site
						{
							OFFSET 0.0 0.0 0.0
						}
					}
				}
			}
		}
		JOINT UpperLeg_R
		{
			OFFSET -2.19251 6.46944 0.0
			CHANNELS 6 Xposition Yposition Zposition Zrotation Xrotation Yrotation 
			JOINT LowerLeg_R
			{
				OFFSET -39.0811 -0.00228153 -0.0401928
				CHANNELS 6 Xposition Yposition Zposition Zrotation Xrotation Yrotation 
				JOINT Foot_R
				{
					OFFSET -40.9854 0.0 0.0
					CHANNELS 6 Xposition Yposition Zposition Zrotation Xrotation Yrotation 
					JOINT Toes_R
					{
						OFFSET -11.7543 0.0 0.0
						CHANNELS 6 Xposition Yposition Zposition Zrotation Xrotation Yrotation 
						End Site
						{
							OFFSET 0.0 0.0 0.0
						}
					}
				}
			}
		}
	}
}
MOTION
Frames:	6
Frame Time:	0.0333333
0.000000 0.000000 0.000000 0.000000 0.000000 -0.000000 -1.464040 91.962800 2.921150 88.596500 0.646326 1.757920 15.735700 0.000005 -0.000001 74.525400 87.283300 -74.457500 8.984550 -0.406207 -0.000000 -2.529120 -1.455290 0.103718 16.377300 -0.000001 -0.000001 3.289810 -2.868120 1.650700 6.456720 -0.000001 -0.000000 -1.954680 -2.266630 1.840250 12.994200 -0.242716 4.980390 -84.013600 -10.558600 -60.218500 5.348090 -0.000007 -0.000001 -62.802500 -66.453400 -99.407400 24.328600 0.000019 0.000005 6.007930 4.678310 -52.225300 22.291600 -0.000001 0.000005 16.240600 5.417570 -3.517260 12.994500 -0.242716 -4.980390 94.563000 -10.504200 -66.357900 -5.348130 -0.000001 -0.000004 -42.442800 -68.992000 -78.691800 -24.328900 0.000322 -0.000009 -6.925580 -5.893770 -49.784800 -22.291500 -0.000108 -0.000004 21.303300 5.563370 -9.353730 -2.192480 -6.469440 -0.000000 -174.112000 -13.727400 -3.171980 39.081100 -0.000007 -0.000012 -0.125196 0.295372 22.970200 40.985400 -0.000006 -0.000013 -0.045453 9.982040 -67.848400 11.754300 -0.000000 0.000003 -0.000255 -0.002274 -16.662700 -2.192510 6.469440 -0.000001 177.585000 23.668200 178.520000 -39.081100 -0.002282 -0.040193 0.009740 -0.015783 22.144300 -40.985400 0.000008 0.000006 6.278350 12.896600 -68.790300 -11.754300 -0.000006 -0.000006 -0.438621 -0.539361 -17.108800
0.000000 0.000000 0.000000 0.000000 0.000000 -0.000000 -1.445830 92.021000 2.745950 88.575400 0.339385 1.811680 15.735700 0.000005 -0.000001 76.776200 87.188000 -76.719900 8.984550 -0.406207 -0.000000 -2.290770 -1.291080 0.086707 16.377300 -0.000001 -0.000001 3.376280 -2.904440 1.575680 6.456720 -0.000001 -0.000000 -1.997500 -2.476940 1.943760 12.994200 -0.242716 4.980390 -84.283900 -10.163200 -60.435000 5.348090 -0.000007 -0.000001 -59.913000 -65.760400 -94.709500 24.328600 0.000019 0.000005 5.186060 3.620360 -55.172700 22.291600 -0.000001 0.000005 15.726100 5.412260 -3.340240 12.994500 -0.242716 -4.980390 94.291300 -10.085200 -66.804100 -5.348130 -0.000001 -0.000004 -39.821700 -68.033500 -75.326900 -24.328900 0.000322 -0.000009 -6.717490 -5.473920 -50.990700 -22.291500 -0.000108 -0.000004 21.103500 5.548770 -8.648060 -2.192480 -6.469440 -0.000000 -174.139000 -13.791600 -3.062580 39.081100 -0.000007 -0.000012 -0.121783 0.291247 22.692000 40.985400 -0.000006 -0.000013 -0.103173 9.718440 -67.606200 11.754300 -0.000000 0.000003 -0.000265 -0.002344 -16.665200 -2.192510 6.469440 -0.000001 177.561000 23.858500 178.701000 -39.081100 -0.002282 -0.040193 0.009890 -0.016533 21.676900 -40.985400 0.000008 0.000006 6.466740 13.328500 -68.686300 -11.754300 -0.000006 -0.000006 -0.174765 -0.221088 -17.143900
0.000000 0.000000 0.000000 0.000000 0.000000 -0.000000 -1.427610 92.075700 2.613070 88.581100 0.018564 1.945340 15.735700 0.000005 -0.000001 78.602800 87.059200 -78.562700 8.984550 -0.406207 -0.000000 -2.000200 -1.165360 0.059753 16.377300 -0.000001 -0.000001 3.390740 -2.956320 1.468940 6.456720 -0.000001 -0.000000 -1.946370 -2.660590 2.025380 12.994200 -0.242716 4.980390 -84.597200 -9.793940 -60.926100 5.348090 -0.000007 -0.000001 -54.003300 -64.881700 -86.479000 24.328600 0.000019 0.000005 4.260310 2.691080 -57.778200 22.291600 -0.000001 0.000005 15.324000 5.416580 -3.484360 12.994500 -0.242716 -4.980390 93.954600 -9.472350 -67.214300 -5.348130 -0.000001 -0.000004 -37.847500 -65.973100 -71.916400 -24.328900 0.000322 -0.000009 -6.613450 -5.063510 -52.714900 -22.291500 -0.000108 -0.000004 21.168700 5.537680 -8.137460 -2.192480 -6.469440 -0.000000 -174.192000 -13.647200 -2.812600 39.081100 -0.000007 -0.000012 -0.119616 0.290707 22.365600 40.985400 -0.000006 -0.000013 -0.199723 9.270530 -67.381700 11.754300 -0.000000 0.000003 -0.000272 -0.002398 -16.667200 -2.192510 6.469440 -0.000001 177.402000 24.236600 179.113000 -39.081100 -0.002282 -0.040193 0.008556 -0.013612 21.041900 -40.985400 0.000008 0.000006 6.435190 14.079600 -68.591900 -11.754300 -0.000006 -0.000006 -0.030263 -0.045578 -16.990900
0.000000 0.000000 0.000000 0.000000 0.000000 -0.000000 -1.428890 92.119400 2.474770 88.568900 -0.107976 2.184530 15.735700 0.000005 -0.000001 78.449900 86.899200 -78.407000 8.984550 -0.406207 -0.000000 -1.689640 -1.244960 0.067442 16.377300 -0.000001 -0.000001 3.371880 -2.966030 1.314720 6.456720 -0.000001 -0.000000 -1.770230 -2.676930 2.046300 12.994200 -0.242716 4.980390 -85.110300 -9.121360 -61.646100 5.348090 -0.000007 -0.000001 -46.290300 -63.038300 -76.375100 24.328600 0.000019 0.000005 3.963710 2.332880 -59.567400 22.291600 -0.000001 0.000005 14.793700 5.411860 -3.326740 12.994500 -0.242716 -4.980390 93.499600 -8.658520 -67.891700 -5.348130 -0.000001 -0.000004 -35.734100 -62.890300 -67.696400 -24.328900 0.000322 -0.000009 -6.691490 -4.729790 -54.894600 -22.291500 -0.000108 -0.000004 21.278500 5.527150 -7.670380 -2.192480 -6.469440 -0.000000 -174.212000 -13.294900 -2.538620 39.081100 -0.000007 -0.000012 -0.116478 0.286274 22.140200 40.985400 -0.000006 -0.000013 -0.291131 8.824390 -67.195500 11.754300 -0.000000 0.000003 -0.000268 -0.002364 -16.666000 -2.192510 6.469440 -0.000001 177.223000 24.775800 179.654000 -39.081100 -0.002282 -0.040193 0.007685 -0.011711 20.442100 -40.985400 0.000008 0.000006 6.549390 14.736900 -68.583500 -11.754300 -0.000006 -0.000006 -0.000584 -0.009312 -16.952100
0.000000 0.000000 0.000000 0.000000 0.000000 -0.000000 -1.424070 92.182400 2.280990 88.608100 -0.270571 2.400430 15.735700 0.000005 -0.000001 78.456600 86.749100 -78.412900 8.984550 -0.406207 -0.000000 -1.395400 -1.304270 0.071556 16.377300 -0.000001 -0.000001 3.261530 -2.900390 1.125520 6.456720 -0.000001 -0.000000 -1.649370 -2.707820 2.000310 12.994200 -0.242716 4.980390 -85.669000 -8.293810 -62.299200 5.348090 -0.000007 -0.000001 -40.126300 -59.501200 -66.974300 24.328600 0.000019 0.000005 4.288990 2.366540 -61.163200 22.291600 -0.000001 0.000005 14.289800 5.398840 -2.899750 12.994500 -0.242716 -4.980390 92.942100 -7.509370 -68.532400 -5.348130 -0.000001 -0.000004 -34.135000 -58.644500 -63.314800 -24.328900 0.000322 -0.000009 -6.649270 -4.263460 -57.468500 -22.291500 -0.000108 -0.000004 21.674500 5.515740 -7.181350 -2.192480 -6.469440 -0.000000 -174.258000 -13.193200 -2.268340 39.081100 -0.000007 -0.000012 -0.114372 0.286204 21.782600 40.985400 -0.000006 -0.000013 -0.344678 8.620340 -66.887000 11.754300 -0.000000 0.000003 -0.000286 -0.002501 -16.670900 -2.192510 6.469440 -0.000001 177.026000 25.192200 -179.936000 -39.081100 -0.002282 -0.040193 0.005600 -0.006295 19.900300 -40.985400 0.000008 0.000006 6.501630 15.383000 -68.388900 -11.754300 -0.000006 -0.000006 -0.000427 -0.006894 -16.853800
0.000000 0.000000 0.000000 0.000000 0.000000 -0.000000 -1.397930 92.220000 2.059280 88.726900 -0.525278 2.596510 15.735700 0.000005 -0.000001 77.999200 86.593300 -77.964700 8.984550 -0.406207 -0.000000 -1.101130 -1.419060 0.055489 16.377300 -0.000001 -0.000001 3.058910 -2.625000 0.891134 6.456720 -0.000001 -0.000000 -1.575660 -2.459060 1.847160 12.994200 -0.242716 4.980390 -86.365700 -7.127080 -62.890400 5.348090 -0.000007 -0.000001 -35.677200 -54.587800 -58.653400 24.328600 0.000019 0.000005 4.620660 2.434380 -62.275700 22.291600 -0.000001 0.000005 13.989200 5.387890 -2.547850 12.994500 -0.242716 -4.980390 92.257700 -6.031140 -69.432800 -5.348130 -0.000001 -0.000004 -32.824800 -53.356000 -58.489500 -24.328900 0.000322 -0.000009 -6.617030 -3.800360 -60.253400 -22.291500 -0.000108 -0.000004 22.176900 5.505110 -6.740670 -2.192480 -6.469440 -0.000000 -174.341000 -13.628900 -2.056860 39.081100 -0.000007 -0.000012 -0.111583 0.282489 21.554100 40.985400 -0.000006 -0.000013 -0.300714 8.766990 -66.644100 11.754300 -0.000000 0.000003 -0.000263 -0.002328 -16.664700 -2.192510 6.469440 -0.000001 176.684000 25.478400 -179.820000 -39.081100 -0.002282 -0.040193 -0.015461 0.052183 19.795400 -40.985400 0.000008 0.000006 5.902040 16.116400 -68.008200 -11.754300 -0.000006 -0.000006 -0.000544 -0.008708 -16.927500
